<mxfile host="Electron" agent="Mozilla/5.0 (Windows NT 10.0; Win64; x64) AppleWebKit/537.36 (KHTML, like Gecko) draw.io/28.0.4 Chrome/138.0.7204.97 Electron/37.2.1 Safari/537.36" version="28.0.4">
  <diagram name="Page-1" id="c5ww12puSlcOiLX9uFQ_">
    <mxGraphModel dx="357" dy="713" grid="1" gridSize="10" guides="1" tooltips="1" connect="1" arrows="1" fold="1" page="1" pageScale="1" pageWidth="850" pageHeight="1100" math="0" shadow="0">
      <root>
        <mxCell id="0" />
        <mxCell id="1" parent="0" />
        <mxCell id="Dx_Ku_VgnGbCFsE47IkR-1" value="" style="rounded=0;whiteSpace=wrap;html=1;fillColor=none;strokeColor=default;gradientColor=none;dashed=1;" vertex="1" parent="1">
          <mxGeometry x="60" y="90" width="140" height="330" as="geometry" />
        </mxCell>
        <mxCell id="Dx_Ku_VgnGbCFsE47IkR-2" value="&lt;font style=&quot;font-size: 24px;&quot;&gt;Source&lt;/font&gt;" style="rounded=0;whiteSpace=wrap;html=1;fillColor=default;strokeColor=none;" vertex="1" parent="1">
          <mxGeometry x="70" y="50" width="120" height="60" as="geometry" />
        </mxCell>
        <mxCell id="Dx_Ku_VgnGbCFsE47IkR-7" value="" style="group" vertex="1" connectable="0" parent="1">
          <mxGeometry x="100" y="310" width="60.00000000000001" height="70" as="geometry" />
        </mxCell>
        <mxCell id="Dx_Ku_VgnGbCFsE47IkR-4" value="" style="image;aspect=fixed;html=1;points=[];align=center;fontSize=12;image=img/lib/azure2/general/Folder_Blank.svg;" vertex="1" parent="Dx_Ku_VgnGbCFsE47IkR-7">
          <mxGeometry x="5.359999999999999" width="49.29" height="40" as="geometry" />
        </mxCell>
        <mxCell id="Dx_Ku_VgnGbCFsE47IkR-6" value="ERP" style="text;html=1;align=center;verticalAlign=middle;whiteSpace=wrap;rounded=0;" vertex="1" parent="Dx_Ku_VgnGbCFsE47IkR-7">
          <mxGeometry y="40" width="60" height="30" as="geometry" />
        </mxCell>
        <mxCell id="Dx_Ku_VgnGbCFsE47IkR-19" value="" style="image;aspect=fixed;html=1;points=[];align=center;fontSize=12;image=img/lib/azure2/general/File.svg;" vertex="1" parent="Dx_Ku_VgnGbCFsE47IkR-7">
          <mxGeometry x="38.42" y="20" width="16.23" height="20" as="geometry" />
        </mxCell>
        <mxCell id="Dx_Ku_VgnGbCFsE47IkR-8" value="" style="group" vertex="1" connectable="0" parent="1">
          <mxGeometry x="100" y="160" width="111" height="99" as="geometry" />
        </mxCell>
        <mxCell id="Dx_Ku_VgnGbCFsE47IkR-3" value="" style="image;aspect=fixed;html=1;points=[];align=center;fontSize=12;image=img/lib/azure2/general/Folder_Blank.svg;" vertex="1" parent="Dx_Ku_VgnGbCFsE47IkR-8">
          <mxGeometry x="5.359999999999999" width="49.29" height="40" as="geometry" />
        </mxCell>
        <mxCell id="Dx_Ku_VgnGbCFsE47IkR-5" value="CRM" style="text;html=1;align=center;verticalAlign=middle;whiteSpace=wrap;rounded=0;" vertex="1" parent="Dx_Ku_VgnGbCFsE47IkR-8">
          <mxGeometry y="40" width="60" height="30" as="geometry" />
        </mxCell>
        <mxCell id="Dx_Ku_VgnGbCFsE47IkR-18" value="" style="image;aspect=fixed;html=1;points=[];align=center;fontSize=12;image=img/lib/azure2/general/File.svg;" vertex="1" parent="Dx_Ku_VgnGbCFsE47IkR-8">
          <mxGeometry x="38.42" y="20" width="16.23" height="20" as="geometry" />
        </mxCell>
        <mxCell id="Dx_Ku_VgnGbCFsE47IkR-9" value="" style="rounded=1;whiteSpace=wrap;html=1;fillColor=none;strokeColor=light-dark(#FFA500,#DA8C00);" vertex="1" parent="1">
          <mxGeometry x="320" y="100" width="140" height="320" as="geometry" />
        </mxCell>
        <mxCell id="Dx_Ku_VgnGbCFsE47IkR-10" value="&lt;font style=&quot;font-size: 24px;&quot;&gt;BRONZE&lt;/font&gt;" style="rounded=1;whiteSpace=wrap;html=1;fillColor=light-dark(#f0a30a, #e5b066);strokeColor=#BD7000;fontColor=#000000;gradientDirection=south;gradientColor=light-dark(#000000,#EE9314);" vertex="1" parent="1">
          <mxGeometry x="325" y="40" width="130" height="60" as="geometry" />
        </mxCell>
        <mxCell id="Dx_Ku_VgnGbCFsE47IkR-11" value="&lt;font&gt;crm_cust_info&lt;/font&gt;" style="rounded=1;whiteSpace=wrap;html=1;fillColor=light-dark(#f0a30a, #e5b066);strokeColor=#BD7000;fontColor=#000000;gradientDirection=south;gradientColor=light-dark(#000000,#EE9314);" vertex="1" parent="1">
          <mxGeometry x="340" y="130" width="100" height="20" as="geometry" />
        </mxCell>
        <mxCell id="Dx_Ku_VgnGbCFsE47IkR-12" value="prd_info.csv" style="rounded=1;whiteSpace=wrap;html=1;fillColor=light-dark(#f0a30a, #e5b066);strokeColor=#BD7000;fontColor=#000000;gradientDirection=south;gradientColor=light-dark(#000000,#EE9314);" vertex="1" parent="1">
          <mxGeometry x="340" y="170" width="100" height="20" as="geometry" />
        </mxCell>
        <mxCell id="Dx_Ku_VgnGbCFsE47IkR-13" value="crm_sales_details" style="rounded=1;whiteSpace=wrap;html=1;fillColor=light-dark(#f0a30a, #e5b066);strokeColor=#BD7000;fontColor=#000000;gradientDirection=south;gradientColor=light-dark(#000000,#EE9314);" vertex="1" parent="1">
          <mxGeometry x="340" y="210" width="100" height="20" as="geometry" />
        </mxCell>
        <mxCell id="Dx_Ku_VgnGbCFsE47IkR-14" value="&lt;font&gt;erp_cust_az12&lt;/font&gt;" style="rounded=1;whiteSpace=wrap;html=1;fillColor=light-dark(#f0a30a, #e5b066);strokeColor=#BD7000;fontColor=#000000;gradientDirection=south;gradientColor=light-dark(#000000,#EE9314);" vertex="1" parent="1">
          <mxGeometry x="340" y="280" width="100" height="20" as="geometry" />
        </mxCell>
        <mxCell id="Dx_Ku_VgnGbCFsE47IkR-15" value="&lt;font&gt;erp_loc_a101&lt;/font&gt;" style="rounded=1;whiteSpace=wrap;html=1;fillColor=light-dark(#f0a30a, #e5b066);strokeColor=#BD7000;fontColor=#000000;gradientDirection=south;gradientColor=light-dark(#000000,#EE9314);" vertex="1" parent="1">
          <mxGeometry x="340" y="320" width="100" height="20" as="geometry" />
        </mxCell>
        <mxCell id="Dx_Ku_VgnGbCFsE47IkR-16" value="&lt;font&gt;erp_px_cat_g1v2&lt;/font&gt;" style="rounded=1;whiteSpace=wrap;html=1;fillColor=light-dark(#f0a30a, #e5b066);strokeColor=#BD7000;fontColor=#000000;gradientDirection=south;gradientColor=light-dark(#000000,#EE9314);" vertex="1" parent="1">
          <mxGeometry x="340" y="360" width="100" height="20" as="geometry" />
        </mxCell>
        <mxCell id="Dx_Ku_VgnGbCFsE47IkR-20" style="edgeStyle=orthogonalEdgeStyle;rounded=0;orthogonalLoop=1;jettySize=auto;html=1;entryX=0;entryY=0.5;entryDx=0;entryDy=0;" edge="1" parent="1" source="Dx_Ku_VgnGbCFsE47IkR-3" target="Dx_Ku_VgnGbCFsE47IkR-11">
          <mxGeometry relative="1" as="geometry" />
        </mxCell>
        <mxCell id="Dx_Ku_VgnGbCFsE47IkR-22" style="edgeStyle=orthogonalEdgeStyle;rounded=0;orthogonalLoop=1;jettySize=auto;html=1;" edge="1" parent="1" source="Dx_Ku_VgnGbCFsE47IkR-3" target="Dx_Ku_VgnGbCFsE47IkR-12">
          <mxGeometry relative="1" as="geometry" />
        </mxCell>
        <mxCell id="Dx_Ku_VgnGbCFsE47IkR-23" style="edgeStyle=orthogonalEdgeStyle;rounded=0;orthogonalLoop=1;jettySize=auto;html=1;entryX=0;entryY=0.5;entryDx=0;entryDy=0;" edge="1" parent="1" source="Dx_Ku_VgnGbCFsE47IkR-3" target="Dx_Ku_VgnGbCFsE47IkR-13">
          <mxGeometry relative="1" as="geometry" />
        </mxCell>
        <mxCell id="Dx_Ku_VgnGbCFsE47IkR-24" style="edgeStyle=orthogonalEdgeStyle;rounded=0;orthogonalLoop=1;jettySize=auto;html=1;entryX=0;entryY=0.5;entryDx=0;entryDy=0;" edge="1" parent="1" source="Dx_Ku_VgnGbCFsE47IkR-4" target="Dx_Ku_VgnGbCFsE47IkR-14">
          <mxGeometry relative="1" as="geometry" />
        </mxCell>
        <mxCell id="Dx_Ku_VgnGbCFsE47IkR-25" style="edgeStyle=orthogonalEdgeStyle;rounded=0;orthogonalLoop=1;jettySize=auto;html=1;entryX=0;entryY=0.5;entryDx=0;entryDy=0;" edge="1" parent="1" source="Dx_Ku_VgnGbCFsE47IkR-4" target="Dx_Ku_VgnGbCFsE47IkR-15">
          <mxGeometry relative="1" as="geometry" />
        </mxCell>
        <mxCell id="Dx_Ku_VgnGbCFsE47IkR-26" style="edgeStyle=orthogonalEdgeStyle;rounded=0;orthogonalLoop=1;jettySize=auto;html=1;entryX=0;entryY=0.75;entryDx=0;entryDy=0;" edge="1" parent="1" source="Dx_Ku_VgnGbCFsE47IkR-4" target="Dx_Ku_VgnGbCFsE47IkR-16">
          <mxGeometry relative="1" as="geometry" />
        </mxCell>
      </root>
    </mxGraphModel>
  </diagram>
</mxfile>
